PathFileType	4	(X/Y/Z)	C:/Users/opensim2020/Desktop/walking_exp_matlab/subject01_walking08_straight_04.trc	
DataRate	CameraRate	NumFrames	NumMarkers	Units	OrigDataRate	OrigDataStartFrame	OrigNumFrames	
100.00	100.00	4	43	mm	100.00	3723	256	
Frame#	Time	LFHD			RFHD			LBHD			RBHD			C7			T10			CLAV			STRN			RBAK			LSHO			LUPA			LELB			LFRM			LWRA			LWRB			LFIN			RSHO			RUPA			RELB			RFRM			RWRA			RWRB			RFIN			LASI			RASI			LPSI			RPSI			LTHI			LKNE			LTIB			LANK			LHEE			LTOE			RTHI			RKNE			RTIB			RANK			RHEE			RTOE			*39			*40			*41			*42			
		X1	Y1	Z1	X2	Y2	Z2	X3	Y3	Z3	X4	Y4	Z4	X5	Y5	Z5	X6	Y6	Z6	X7	Y7	Z7	X8	Y8	Z8	X9	Y9	Z9	X10	Y10	Z10	X11	Y11	Z11	X12	Y12	Z12	X13	Y13	Z13	X14	Y14	Z14	X15	Y15	Z15	X16	Y16	Z16	X17	Y17	Z17	X18	Y18	Z18	X19	Y19	Z19	X20	Y20	Z20	X21	Y21	Z21	X22	Y22	Z22	X23	Y23	Z23	X24	Y24	Z24	X25	Y25	Z25	X26	Y26	Z26	X27	Y27	Z27	X28	Y28	Z28	X29	Y29	Z29	X30	Y30	Z30	X31	Y31	Z31	X32	Y32	Z32	X33	Y33	Z33	X34	Y34	Z34	X35	Y35	Z35	X36	Y36	Z36	X37	Y37	Z37	X38	Y38	Z38	X39	Y39	Z39	X40	Y40	Z40	X41	Y41	Z41	X42	Y42	Z42	X43	Y43	Z43	

65	0.640	1550.80652	644.66461	1665.68738	1439.74097	621.40594	1672.14856	1531.94348	759.48645	1620.69617	1413.93225	738.88239	1626.66687	1486.78894	793.71783	1424.17737	1468.50366	817.29248	1129.80896	1492.82642	648.40637	1360.77966	1501.55652	599.58020	1208.00122	1404.56165	835.45746	1225.96851	1650.81360	715.92450	1389.71741	1740.15417	728.64490	1207.49500	1751.54907	715.62122	1054.58899	1781.62073	634.47504	973.46106	1771.95618	509.76028	910.73303	1791.59216	557.50195	879.49182	1808.67383	483.52505	842.46350	1337.77185	704.68530	1387.89209	1237.50500	764.69061	1186.93286	1237.46411	768.35431	1062.92993	1206.05652	751.33191	944.70099	1223.27356	681.10321	821.47418	1184.28308	725.56329	826.39880	1187.17065	695.14728	745.57202	1593.53577	656.31207	924.59235	1378.14758	622.49280	933.72040	1509.50977	831.75043	937.79187	1366.25073	808.04987	939.76086	1634.86145	751.45752	598.80511	1618.29480	791.46484	467.46765	1618.24768	905.79333	313.82114	1561.38586	1004.16681	114.42039	1504.60193	1050.91467	103.29481	1566.28882	874.82703	37.19638	1312.04639	613.35229	605.65118	1342.10291	568.41504	456.79053	1334.20117	577.70239	282.01495	1377.11975	546.05383	78.34382	1427.69141	586.82098	33.82962	1374.65820	404.15707	57.13301	1461.30017	635.70331	1705.28186	-3101.95313	1973.15698	1023.49054	-3140.66235	2012.45056	1022.00476			 
66	0.650	1548.86597	636.96606	1666.02625	1437.82117	613.65997	1672.39258	1530.00366	751.84180	1621.24255	1412.09766	731.22235	1627.11865	1485.15076	786.09198	1424.33948	1467.20728	808.84155	1129.65247	1490.94214	640.92413	1361.13062	1499.69971	591.44080	1208.63879	1403.08704	827.70154	1225.79529	1649.21045	708.26764	1389.82324	1738.01404	721.15216	1207.32263	1749.41382	709.06549	1054.43323	1779.64648	628.76831	972.49146	1770.24756	504.68478	908.59924	1789.88159	552.68683	877.81641	1806.95276	479.20590	840.12415	1335.98438	697.44873	1387.69739	1235.86438	756.77856	1186.30530	1236.00415	759.98291	1062.20410	1204.71277	742.90332	943.99939	1221.98975	672.50128	820.90576	1182.95337	717.07678	825.68353	1186.02344	686.45941	744.95795	1592.04016	647.08716	924.29254	1376.81445	613.57422	933.92126	1508.30371	822.82324	937.40240	1364.89587	799.28540	939.88629	1633.97278	741.81384	598.49152	1617.91687	781.78918	467.13162	1618.53943	898.78827	315.62454	1562.34338	1001.14246	117.90193	1505.89307	1048.52344	108.41962	1566.04236	874.33142	36.88017	1310.80359	605.72931	606.13525	1341.12671	560.60718	457.34262	1332.82031	570.61633	282.64334	1376.30566	544.01709	77.94698	1427.11816	585.96881	34.73970	1375.15845	402.48138	53.32333	1459.37451	627.87042	1705.58191	-3101.82642	1973.01135	1023.39441	-3140.74976	2012.50476	1022.07190			 
67	0.660	1546.93408	629.14178	1666.38721	1435.87268	605.85425	1672.62268	1528.12097	744.17358	1621.88379	1410.06860	723.52753	1627.66223	1483.53882	778.34320	1424.63855	1465.97400	800.43018	1129.65808	1489.13831	633.34619	1361.66748	1497.77917	583.41315	1209.22656	1401.67419	820.00751	1225.86133	1647.55432	700.46155	1390.05115	1736.02905	713.70361	1207.47327	1747.24915	702.61456	1054.50439	1777.52319	623.20001	971.66534	1768.34106	499.86951	906.43079	1787.87646	548.26123	876.14655	1805.11438	475.23651	837.71136	1334.08325	690.18262	1387.58545	1234.29736	748.56476	1185.87476	1234.60413	751.50299	1061.77258	1203.35864	734.20612	943.53943	1220.75171	663.65033	820.42725	1181.86084	708.17102	825.22656	1184.68872	677.62988	744.66089	1590.44055	637.80743	924.17603	1375.37793	604.87195	934.37567	1507.21155	813.84912	937.18683	1363.76819	790.74072	940.38611	1633.06299	731.54419	598.22314	1617.69678	771.36023	466.88989	1618.82275	891.16351	317.60065	1563.47095	997.88293	121.96941	1506.97034	1045.41821	113.91031	1566.17432	874.00470	36.82982	1309.30457	597.82349	606.66260	1339.90833	552.95355	457.85678	1331.03247	564.00586	282.82327	1375.62451	542.85358	77.67516	1426.33936	585.26715	35.20537	1375.54456	401.17691	49.96430	1457.24756	619.57263	1706.24597	-3101.90576	1973.09656	1023.33093	-3140.65845	2012.52832	1022.00842			 
68	0.670	1544.99744	621.30200	1666.81335	1433.94385	598.05109	1673.01758	1526.22937	736.42413	1622.55273	1408.23474	715.82159	1628.20349	1482.02148	770.69128	1424.95020	1464.81079	792.16345	1129.78259	1487.31238	625.65509	1362.23035	1495.93665	575.21887	1209.95642	1400.39636	812.28613	1225.99890	1645.89648	692.51068	1390.40857	1733.87341	706.43365	1207.64099	1744.98462	696.21063	1054.69458	1775.31689	617.81915	970.99304	1766.35071	495.35699	904.24518	1785.64343	544.18445	874.49731	1803.25806	471.67279	835.31781	1332.42627	683.06403	1387.77222	1232.70459	740.60730	1185.64209	1233.16321	742.92303	1061.55920	1202.04578	725.42139	943.48395	1219.32544	654.74030	820.54944	1180.32654	699.16174	825.12201	1183.28784	668.59552	744.56921	1588.79028	628.52399	924.32043	1373.91040	596.17468	935.14795	1506.26868	804.81793	937.25745	1362.80811	782.18713	941.09369	1632.16565	720.65637	597.98523	1617.49854	760.28552	466.66183	1618.56897	882.45557	319.17566	1564.64417	994.22443	126.50084	1508.22131	1041.71667	120.22043	1566.43738	873.76147	36.76294	1307.71838	589.56421	607.31915	1338.74170	545.67578	457.93521	1329.36829	558.63831	282.72147	1374.95898	541.02368	77.13864	1425.78931	584.64722	35.93763	1375.61011	400.14868	47.27940	1455.31128	611.53046	1706.70215	-3101.89600	1973.19055	1023.42560	-3140.81274	2012.43982	1022.12860			 
